<svg xmlns="http://www.w3.org/2000/svg" viewBox="0 0 182.03 70.84"><title>digital cookies vinie</title><g id="Camada_7" data-name="Camada 7"><path d="M18.62,44.67C30.43,57.8-7.52,59.24,7.24,20.22c5.54-8.86,20.2,2.33,3.89,5.49C6.45,35.35,10.68,48.63,18.62,44.67Z" style="fill:#004984"/><path d="M27.88,32.68l.8.84C37,29.43,38,52.67,29.21,53.37,20.26,51.15,19.17,34.33,27.88,32.68ZM25,41.54c-.23,2.92,2.57,3.67,5.77,4.4l-1.28,2.37c.73,1.76-8.64-2.18-3.45-11.46C29.18,32.38,27.35,39.76,25,41.54Z" style="fill:#004984"/><path d="M44.64,32.68l.81.84c8.36-4.09,9.26,19.15.53,19.85C37,51.15,35.93,34.33,44.64,32.68Zm6.09,8.61c-1.26,12.2-7.36,7.93-5.78,8.14l-1.52-2.21c9.92-1.53,3.83-7.37.57-9.18C46,35.59,52.06,34.29,50.73,41.29Z" style="fill:#004984"/><path d="M56.08,21.42c.57-.48,1.69-.54,2.83,1.18.43,2.72-1.42,14.29.83,12.37,9.18-12.34,11.42-3.16,2.26,5.41,9.12,5.62,9,17.43-2.66,5.55-.06,1.3-2.26,7.31-4.93,2.48C55.08,40.22,52.52,29,56.08,21.42Z" style="fill:#004984"/><path d="M69.68,26.49c.73-2.94,5.37,0,2.46,3.09C70.77,29.94,69.42,29.34,69.68,26.49Zm1.23,7c1.34-2.21,5.47,11.59,1.85,18.56C68.14,50.71,70.9,34.46,70,34.25Z" style="fill:#004984"/><path d="M82.53,47.43c.84,2.64,4,.89,7.48-1.43,5.07,7.62-11.52,12.11-11.62-.46-1.21-27,21.44-5.44,4.14,1.4Zm-1.2-4.31,1.38.46c2.85-5.45,2.06,1.9,2.06.1C83,41.55,79.18,48.21,81.33,43.12Z" style="fill:#004984"/><path d="M99.25,38.05c9.2,22.17-12,17.64-1.18,10.57L98.3,47c-10.55-20.75,14.19-15.69,1.44-9.94Z" style="fill:#004984"/><path d="M118.43,53.69c-.33,1.1-8-19.26-5.38-28.32,1.18.09,3,9.18,5.63,17.87C125.93,6.31,129.58,33.36,118.43,53.69Z" style="fill:#004984"/><path d="M129.63,26.14c.72-2.93,5.36,0,2.45,3.1C130.72,29.59,129.36,29,129.63,26.14Zm1.23,7c1.33-2.2,5.46,11.59,1.84,18.56-4.61-1.36-1.86-17.62-2.77-17.83Z" style="fill:#004984"/><path d="M145.53,37.78c-4.28.2-4.59,34.49-8,0l.67-.51h.67l1,1c9-18.33,20,12.06,12,15C148.6,49.88,153.81,39.22,145.53,37.78Z" style="fill:#004984"/><path d="M158.25,26.14c.73-2.93,5.36,0,2.45,3.1C159.34,29.59,158,29,158.25,26.14Zm1.23,7c1.33-2.2,5.46,11.59,1.84,18.56-4.61-1.37-1.86-17.62-2.77-17.83Z" style="fill:#004984"/><path d="M169.81,47.79c.93,2.78,4.15.75,7.47-1.42,5.21,7.69-12.35,12.65-11.67-1.93.39-25.09,20.82-3.36,4.2,2.86Zm-2.22-5.47c1.61-8.07,2.17-8.76,6.21-5.35C172.4,40.78,171.15,34.47,167.59,42.32Z" style="fill:#004984"/></g></svg>